<svg xmlns="http://www.w3.org/2000/svg" width="32.821" height="36.857" viewBox="0 0 32.821 36.857">
  <path id="Shape_6" data-name="Shape 6" d="M55.207,918.543a.546.546,0,0,1,.171.628l-9.257,22.914a.486.486,0,0,1-.514.343.512.512,0,0,1-.229-.057l-12.171-4.457a.51.51,0,0,1-.343-.286.6.6,0,0,1,0-.514l1.085-2.171-11.028-5.257a.507.507,0,0,1-.286-.343.408.408,0,0,1,.057-.457l3.428-6.057,9.6-16.972a.614.614,0,0,1,.572-.286l12.171,1.257h.057a.162.162,0,0,0,.114.057h.057v.057h.057V907h.057l.057.057a.05.05,0,0,0,.057.057h0v.114l.057.057v.228a.05.05,0,0,1-.057.057v.057l-1.543,3.257Zm-26.628,5.885-4.515,4.515.857.4,4.571-4.571Zm-3.2,2,2.286-2.343-.8-.286Zm.343,3.314.857.4,4.743-4.743-.914-.343Zm1.657.8.857.4,4.857-4.914-.914-.286Zm1.657.8.857.4,5.029-5.028-.915-.343Zm1.657.8.857.4,5.2-5.2L35.835,927Zm3.257-20.8-1.657,2.914,7.143-7.2-1.085-.114Zm-1.6,21.543.857.4,5.314-5.314-.915-.343Zm9.314-25.6-1.085-.114-7.714,7.714.971.286Zm-7.657,26.4.857.4L40.35,928.6l-.915-.286Zm8.172-4.4-.914-.343-6,6-1.086,2.114.114.057Zm1.714-21.772-1.085-.114-8.057,8.057.971.229Zm.057,22.4-.914-.343-7.829,7.886.914.343Zm-6.685-23.085-.743-.057-1.029,1.771Zm8.857.914-1.086-.114-8.343,8.343.971.286Zm-.343,22.8-.914-.343-7.886,7.886.914.343Zm1.486-22.686-8.686,8.628.971.286,7.143-7.143.857-1.714Zm.286,23.314-.914-.286-7.829,7.886.857.286Zm-1.943-19.2-5.085,5.086.971.229,2.972-2.972Zm3.429,19.771-.571-.229L40.578,939.4l.914.343,7.257-7.314Zm5.143-12.685-7.314-7.086-2.915,6.057,1.657.457a.517.517,0,0,1,.343.286.605.605,0,0,1,0,.514l-4.171,8.628,7.714,2.743ZM43.264,940.371l3.829-3.828.857-2.058-5.6,5.6Zm.114-23.714-.971.914.457.114ZM46.293,938.6l-2.114,2.114,1.086.4Z" transform="translate(-22.589 -905.571)" fill="#0777ba"/>
</svg>
