<svg xmlns="http://www.w3.org/2000/svg" width="38.904" height="34.305" viewBox="0 0 38.904 34.305">
  <path id="Shape_4" data-name="Shape 4" d="M39.648,816.149a1.2,1.2,0,1,1,0,2.4h-18.4a1.2,1.2,0,1,1,0-2.4h1.2a2.418,2.418,0,0,1,.743-1.772,2.45,2.45,0,0,1,1.714-.685H35.933a2.349,2.349,0,0,1,2.457,2.457Zm-4.4-31.314a1.071,1.071,0,0,1,1.714-.114l10.286,8.628a1.071,1.071,0,0,1,.114,1.714l-.857.971a1.054,1.054,0,0,1-1.714.171l-1.829-1.542q-.514-.4-.857.057a.536.536,0,0,0,.057.857,1.074,1.074,0,0,1,.114,1.714l-2.343,2.8,5.372,4.515a2.486,2.486,0,0,1,3.486-.286l9.657,8.343a1.1,1.1,0,0,1,.172,1.714l-3.143,3.772a1.1,1.1,0,0,1-1.714.171l-9.714-8.4a2.6,2.6,0,0,1-.857-1.657,2.427,2.427,0,0,1,.571-1.771l-5.372-4.515-2.343,2.8a1.074,1.074,0,0,1-1.714.114.56.56,0,0,0-.857.114.536.536,0,0,0,.057.857l1.886,1.543a1.074,1.074,0,0,1,.114,1.714l-.857,1.028a1.1,1.1,0,0,1-1.714.171l-10.228-8.628a1.111,1.111,0,0,1-.171-1.771l.857-.971a1.1,1.1,0,0,1,1.714-.171l1.829,1.6a.518.518,0,0,0,.857-.114.537.537,0,0,0-.057-.857,1.07,1.07,0,0,1-.114-1.714l6.229-7.486a1.075,1.075,0,0,1,1.714-.114.518.518,0,0,0,.857-.114.537.537,0,0,0-.057-.857l-1.885-1.543a1.073,1.073,0,0,1-.115-1.714Z" transform="translate(-20.048 -784.347)" fill="#0777ba"/>
</svg>
