<svg xmlns="http://www.w3.org/2000/svg" width="292.866" height="43.23" viewBox="0 0 292.866 43.23">
  <g id="Group_21" data-name="Group 21" transform="translate(-137.263 -149.348)">
    <g id="Group_1" data-name="Group 1">
      <path id="Path_1" data-name="Path 1" d="M195.4,181.812a.3.3,0,0,1-.315-.311V166.668a.165.165,0,0,0-.188-.187h-5.058a.3.3,0,0,1-.314-.311v-5.151a.3.3,0,0,1,.314-.309h17.088a.3.3,0,0,1,.315.309v5.151a.3.3,0,0,1-.315.311h-5.057a.165.165,0,0,0-.188.187V181.5a.3.3,0,0,1-.315.311Z" fill="#004686"/>
      <path id="Path_2" data-name="Path 2" d="M212.124,161.019a.294.294,0,0,1,.313-.309h5.968a.3.3,0,0,1,.315.309V168a.165.165,0,0,0,.188.185h4.43a.165.165,0,0,0,.188-.185v-6.983a.3.3,0,0,1,.315-.309h5.967a.3.3,0,0,1,.315.309V181.5a.3.3,0,0,1-.315.311h-5.967a.3.3,0,0,1-.315-.311v-7.355a.165.165,0,0,0-.188-.186h-4.43a.165.165,0,0,0-.188.186V181.5a.3.3,0,0,1-.315.311h-5.968a.3.3,0,0,1-.313-.311Z" fill="#004686"/>
      <path id="Path_3" data-name="Path 3" d="M236.233,161.019a.294.294,0,0,1,.313-.309h5.968a.3.3,0,0,1,.315.309V181.5a.3.3,0,0,1-.315.311h-5.968a.294.294,0,0,1-.313-.311Z" fill="#004686"/>
      <path id="Path_4" data-name="Path 4" d="M247.943,179.08a.418.418,0,0,1-.031-.558l3.329-3.879a.254.254,0,0,1,.41-.03,8.459,8.459,0,0,0,5.214,2.048c1.665,0,2.45-.528,2.45-1.365,0-.559-.377-.9-2.011-1.117l-1.13-.155c-4.9-.684-7.508-2.825-7.508-6.984,0-4,3.235-6.7,8.324-6.7a13.583,13.583,0,0,1,8.073,2.421.331.331,0,0,1,.062.527l-2.827,3.972a.316.316,0,0,1-.44.094,8.615,8.615,0,0,0-4.617-1.521c-1.257,0-1.822.5-1.822,1.148,0,.621.5.931,2.042,1.148l1.13.155c5.057.683,7.477,2.825,7.477,7.014,0,4-3.173,6.89-9.142,6.89C253.252,182.185,249.577,180.725,247.943,179.08Z" fill="#004686"/>
      <path id="Path_5" data-name="Path 5" d="M270.764,179.361a.34.34,0,0,1-.063-.466l1.948-2.234a.285.285,0,0,1,.44-.031,9.61,9.61,0,0,0,5.811,2.235c2.544,0,4.021-1.272,4.021-3.043,0-1.519-.942-2.513-3.9-2.916l-1.131-.155c-4.115-.559-6.44-2.514-6.44-6.021,0-3.818,2.827-6.363,7.225-6.363a11.824,11.824,0,0,1,6.91,2.111.276.276,0,0,1,.064.433l-1.508,2.3a.319.319,0,0,1-.44.094,9.087,9.087,0,0,0-5.121-1.645c-2.167,0-3.361,1.179-3.361,2.824,0,1.46,1.036,2.453,3.927,2.856l1.13.155c4.116.558,6.379,2.482,6.379,6.114,0,3.755-2.734,6.547-8.042,6.547A12.133,12.133,0,0,1,270.764,179.361Z" fill="#004686"/>
      <path id="Path_6" data-name="Path 6" d="M293.364,161.019a.3.3,0,0,1,.315-.309h3.078a.3.3,0,0,1,.314.309V181.5a.3.3,0,0,1-.314.311h-3.078a.3.3,0,0,1-.315-.311Z" fill="#004686"/>
      <path id="Path_7" data-name="Path 7" d="M309.833,181.812a.3.3,0,0,1-.313-.311V164.184a.167.167,0,0,0-.189-.186H303.74a.3.3,0,0,1-.315-.309v-2.669a.3.3,0,0,1,.315-.309H319a.3.3,0,0,1,.315.309v2.669A.294.294,0,0,1,319,164h-5.591a.166.166,0,0,0-.189.186V181.5a.3.3,0,0,1-.314.311Z" fill="#004686"/>
      <path id="Path_8" data-name="Path 8" d="M325.71,161.019a.3.3,0,0,1,.314-.309h13.381a.3.3,0,0,1,.315.309v2.669a.294.294,0,0,1-.315.309h-9.8a.165.165,0,0,0-.188.186v5.153a.165.165,0,0,0,.188.185h8.262a.3.3,0,0,1,.314.311V172.5a.3.3,0,0,1-.314.311h-8.262a.165.165,0,0,0-.188.186v5.338a.165.165,0,0,0,.188.186h9.8a.3.3,0,0,1,.315.31V181.5a.3.3,0,0,1-.315.311H326.024a.3.3,0,0,1-.314-.311Z" fill="#004686"/>
      <path id="Path_9" data-name="Path 9" d="M352.9,181.812a.3.3,0,0,1-.313-.311V161.795a.166.166,0,0,0-.189-.186h-6.376a.3.3,0,0,1-.315-.311v-.279a.3.3,0,0,1,.315-.309h14.1a.3.3,0,0,1,.314.309v.279a.3.3,0,0,1-.314.311h-6.378a.165.165,0,0,0-.188.186V181.5a.3.3,0,0,1-.314.311Z" fill="#004686"/>
      <path id="Path_10" data-name="Path 10" d="M367.732,161.019a.3.3,0,0,1,.315-.309h.345a.3.3,0,0,1,.315.309V181.5a.3.3,0,0,1-.315.311h-.345a.3.3,0,0,1-.315-.311Z" fill="#004686"/>
      <path id="Path_11" data-name="Path 11" d="M383.147,181.812a.3.3,0,0,1-.314-.311V161.795a.166.166,0,0,0-.189-.186h-6.377a.3.3,0,0,1-.315-.311v-.279a.3.3,0,0,1,.315-.309h14.1a.294.294,0,0,1,.313.309v.279a.3.3,0,0,1-.313.311h-6.378a.165.165,0,0,0-.188.186V181.5a.3.3,0,0,1-.315.311Z" fill="#004686"/>
      <path id="Path_12" data-name="Path 12" d="M397.983,161.019a.3.3,0,0,1,.314-.309h.346a.3.3,0,0,1,.315.309v19.706a.166.166,0,0,0,.188.187h10.9a.3.3,0,0,1,.314.309v.279a.3.3,0,0,1-.314.311H398.3a.3.3,0,0,1-.314-.311Z" fill="#004686"/>
      <path id="Path_13" data-name="Path 13" d="M417.751,161.019a.3.3,0,0,1,.315-.309h11.747a.3.3,0,0,1,.315.309v.279a.3.3,0,0,1-.315.311h-10.9a.165.165,0,0,0-.189.186v8.658a.167.167,0,0,0,.189.187h9.424a.3.3,0,0,1,.315.309v.279a.3.3,0,0,1-.315.311h-9.424a.165.165,0,0,0-.189.186v9a.166.166,0,0,0,.189.187h10.9a.3.3,0,0,1,.315.309v.279a.3.3,0,0,1-.315.311H418.066a.3.3,0,0,1-.315-.311Z" fill="#004686"/>
    </g>
    <g id="Group_2" data-name="Group 2">
      <rect id="Rectangle_1" data-name="Rectangle 1" width="27.025" height="26.7" transform="matrix(0.91, 0.414, -0.414, 0.91, 148.311, 149.348)" fill="#579ddc"/>
      <rect id="Rectangle_2" data-name="Rectangle 2" width="27.025" height="26.7" transform="translate(156.238 154.588) rotate(45)" fill="#004686"/>
      <ellipse id="Ellipse_1" data-name="Ellipse 1" cx="2.183" cy="2.157" rx="2.183" ry="2.157" transform="translate(159.501 165.93)" fill="#fff"/>
    </g>
  </g>
</svg>
