<svg xmlns="http://www.w3.org/2000/svg" width="196.932" height="29.116" viewBox="0 0 196.932 29.116">
  <g id="Group_24" data-name="Group 24" transform="translate(-92.266 -100.723)">
    <g id="Group_20" data-name="Group 20">
      <path id="Path_12" data-name="Path 12" d="M131.377,122.618a.2.2,0,0,1-.212-.21v-10a.111.111,0,0,0-.126-.126h-3.4a.2.2,0,0,1-.211-.21v-3.474a.2.2,0,0,1,.211-.209h11.489a.2.2,0,0,1,.212.209v3.474a.2.2,0,0,1-.212.21h-3.4a.111.111,0,0,0-.126.126v10a.2.2,0,0,1-.212.21Z" fill="#004686"/>
      <path id="Path_13" data-name="Path 13" d="M142.623,108.594a.2.2,0,0,1,.211-.209h4.013a.2.2,0,0,1,.212.209v4.71a.111.111,0,0,0,.126.125h2.979a.111.111,0,0,0,.126-.125v-4.71a.2.2,0,0,1,.212-.209h4.012a.2.2,0,0,1,.212.209v13.814a.2.2,0,0,1-.212.21H150.5a.2.2,0,0,1-.212-.21v-4.96a.111.111,0,0,0-.126-.125h-2.979a.111.111,0,0,0-.126.125v4.96a.2.2,0,0,1-.212.21h-4.013a.2.2,0,0,1-.211-.21Z" fill="#004686"/>
      <path id="Path_14" data-name="Path 14" d="M158.833,108.594a.2.2,0,0,1,.211-.209h4.013a.2.2,0,0,1,.212.209v13.814a.2.2,0,0,1-.212.21h-4.013a.2.2,0,0,1-.211-.21Z" fill="#004686"/>
      <path id="Path_15" data-name="Path 15" d="M166.706,120.775a.283.283,0,0,1-.021-.376l2.238-2.616a.17.17,0,0,1,.275-.02,5.678,5.678,0,0,0,3.505,1.381c1.119,0,1.647-.356,1.647-.921,0-.377-.254-.607-1.352-.753l-.76-.1c-3.3-.461-5.048-1.9-5.048-4.71,0-2.7,2.175-4.52,5.6-4.52a9.113,9.113,0,0,1,5.428,1.633.223.223,0,0,1,.042.355l-1.9,2.679a.212.212,0,0,1-.3.063,5.78,5.78,0,0,0-3.1-1.026c-.845,0-1.225.335-1.225.774,0,.419.338.628,1.373.774l.76.1c3.4.461,5.027,1.9,5.027,4.731,0,2.7-2.133,4.646-6.147,4.646A9.274,9.274,0,0,1,166.706,120.775Z" fill="#004686"/>
      <path id="Path_16" data-name="Path 16" d="M182.049,120.965a.229.229,0,0,1-.042-.314l1.309-1.507a.192.192,0,0,1,.3-.021,6.45,6.45,0,0,0,3.907,1.507c1.711,0,2.7-.858,2.7-2.052,0-1.025-.633-1.695-2.619-1.966l-.76-.1c-2.767-.377-4.33-1.7-4.33-4.061,0-2.575,1.9-4.291,4.858-4.291a7.933,7.933,0,0,1,4.646,1.424.186.186,0,0,1,.043.292l-1.014,1.549a.214.214,0,0,1-.3.063,6.1,6.1,0,0,0-3.443-1.109c-1.457,0-2.26.795-2.26,1.9,0,.984.7,1.654,2.64,1.926l.76.1c2.767.376,4.289,1.674,4.289,4.123,0,2.533-1.838,4.416-5.407,4.416A8.143,8.143,0,0,1,182.049,120.965Z" fill="#004686"/>
      <path id="Path_17" data-name="Path 17" d="M197.245,108.594a.2.2,0,0,1,.212-.209h2.07a.2.2,0,0,1,.211.209v13.814a.2.2,0,0,1-.211.21h-2.07a.2.2,0,0,1-.212-.21Z" fill="#004686"/>
      <path id="Path_18" data-name="Path 18" d="M208.318,122.618a.2.2,0,0,1-.211-.21V110.729a.112.112,0,0,0-.127-.126h-3.759a.2.2,0,0,1-.212-.209v-1.8a.2.2,0,0,1,.212-.209h10.264a.2.2,0,0,1,.212.209v1.8a.2.2,0,0,1-.212.209h-3.759a.112.112,0,0,0-.127.126v11.679a.2.2,0,0,1-.211.21Z" fill="#004686"/>
      <path id="Path_19" data-name="Path 19" d="M218.993,108.594a.2.2,0,0,1,.211-.209h9a.2.2,0,0,1,.212.209v1.8a.2.2,0,0,1-.212.209h-6.589a.111.111,0,0,0-.126.126V114.2a.111.111,0,0,0,.126.125h5.555a.2.2,0,0,1,.211.21v1.8a.2.2,0,0,1-.211.21h-5.555a.111.111,0,0,0-.126.125v3.6a.111.111,0,0,0,.126.126H228.2a.2.2,0,0,1,.212.209v1.8a.2.2,0,0,1-.212.21h-9a.2.2,0,0,1-.211-.21Z" fill="#004686"/>
      <path id="Path_20" data-name="Path 20" d="M237.272,122.618a.2.2,0,0,1-.211-.21v-13.29a.112.112,0,0,0-.127-.125h-4.287a.2.2,0,0,1-.212-.21v-.188a.2.2,0,0,1,.212-.209h9.483a.2.2,0,0,1,.211.209v.188a.2.2,0,0,1-.211.21h-4.288a.111.111,0,0,0-.126.125v13.29a.2.2,0,0,1-.211.21Z" fill="#004686"/>
      <path id="Path_21" data-name="Path 21" d="M247.247,108.594a.2.2,0,0,1,.212-.209h.232a.2.2,0,0,1,.212.209v13.814a.2.2,0,0,1-.212.21h-.232a.2.2,0,0,1-.212-.21Z" fill="#004686"/>
      <path id="Path_22" data-name="Path 22" d="M257.611,122.618a.2.2,0,0,1-.211-.21v-13.29a.112.112,0,0,0-.127-.125h-4.287a.2.2,0,0,1-.212-.21v-.188a.2.2,0,0,1,.212-.209h9.483a.2.2,0,0,1,.211.209v.188a.2.2,0,0,1-.211.21h-4.288a.111.111,0,0,0-.126.125v13.29a.2.2,0,0,1-.212.21Z" fill="#004686"/>
      <path id="Path_23" data-name="Path 23" d="M267.586,108.594a.2.2,0,0,1,.211-.209h.232a.2.2,0,0,1,.212.209v13.29a.112.112,0,0,0,.126.126H275.7a.2.2,0,0,1,.211.209v.188a.2.2,0,0,1-.211.21h-7.9a.2.2,0,0,1-.211-.21Z" fill="#004686"/>
      <path id="Path_24" data-name="Path 24" d="M280.877,108.594a.2.2,0,0,1,.212-.209h7.9a.2.2,0,0,1,.212.209v.188a.2.2,0,0,1-.212.21h-7.328a.111.111,0,0,0-.127.125v5.839a.112.112,0,0,0,.127.126h6.336a.2.2,0,0,1,.212.209v.188a.2.2,0,0,1-.212.21h-6.336a.111.111,0,0,0-.127.125v6.07a.112.112,0,0,0,.127.126h7.328a.2.2,0,0,1,.212.209v.188a.2.2,0,0,1-.212.21h-7.9a.2.2,0,0,1-.212-.21Z" fill="#004686"/>
    </g>
    <g id="Group_21" data-name="Group 21">
      <rect id="Rectangle_10" data-name="Rectangle 10" width="18.171" height="18.007" transform="matrix(0.91, 0.414, -0.414, 0.91, 99.717, 100.723)" fill="#579ddc"/>
      <rect id="Rectangle_11" data-name="Rectangle 11" width="18.171" height="18.007" transform="translate(105.047 104.257) rotate(45)" fill="#004686"/>
      <ellipse id="Ellipse_4" data-name="Ellipse 4" cx="1.468" cy="1.455" rx="1.468" ry="1.455" transform="translate(107.241 111.906)" fill="#fff"/>
    </g>
  </g>
</svg>
