<svg xmlns="http://www.w3.org/2000/svg" width="110" height="76" viewBox="0 0 110 76">
  <g id="Group_12" data-name="Group 12" transform="translate(-167.702 -128.408)">
    <g id="Path_21" data-name="Path 21" fill="#fff" stroke-miterlimit="10">
      <path d="M 174.7612609863281 203.2231140136719 L 174.572265625 202.6631164550781 L 174.1694488525391 201.4694976806641 L 174.1171722412109 201.3146362304688 L 174.1604461669922 201.1569976806641 L 176.6852722167969 191.9588317871094 L 169.1026153564453 186.1705322265625 L 168.9727020263672 186.0713806152344 L 168.9204406738281 185.9165191650391 L 168.5175933837891 184.7228393554688 L 168.3629150390625 184.2645568847656 L 168.8034515380859 184.0648956298828 L 270.1036682128906 138.1513366699219 L 270.6419677734375 137.9073486328125 L 270.8309631347656 138.4673461914063 L 271.2337951660156 139.6609802246094 L 271.2860717773438 139.8158416748047 L 271.2427978515625 139.9734802246094 L 268.7179565429688 149.171630859375 L 276.3006286621094 154.9599304199219 L 276.4305419921875 155.0590972900391 L 276.4828186035156 155.2139587402344 L 276.8856506347656 156.4076385498047 L 277.0403137207031 156.8659057617188 L 276.5997619628906 157.0655670166016 L 175.2995758056641 202.9791259765625 L 174.7612609863281 203.2231140136719 Z" stroke="none"/>
      <path d="M 270.3243713378906 138.6383209228516 L 169.024169921875 184.5518798828125 L 169.4270324707031 185.7455444335938 L 177.2962951660156 191.7526245117188 L 174.676025390625 201.2985076904297 L 175.078857421875 202.4921417236328 L 276.3790588378906 156.5785827636719 L 275.9762268066406 155.3849182128906 L 268.10693359375 149.3778076171875 L 270.7272033691406 139.8319244384766 L 270.3243713378906 138.6383209228516 M 270.9595642089844 137.1763763427734 L 271.3375549316406 138.29638671875 L 271.7403869628906 139.4900054931641 L 271.8449096679688 139.7997283935547 L 271.7583618164063 140.1149749755859 L 269.3290100097656 148.9654235839844 L 276.6250610351563 154.5349273681641 L 276.8848876953125 154.7332763671875 L 276.9894104003906 155.0429840087891 L 277.3922424316406 156.2366485595703 L 277.7015686035156 157.1531982421875 L 276.8204956054688 157.5525360107422 L 175.5202941894531 203.4660949707031 L 174.4436340332031 203.9541015625 L 174.065673828125 202.8340606689453 L 173.662841796875 201.6404266357422 L 173.5583190917969 201.3307037353516 L 173.6448364257813 201.0154571533203 L 176.07421875 192.1650238037109 L 168.7781982421875 186.5955352783203 L 168.5183715820313 186.3972015380859 L 168.4138488769531 186.0874938964844 L 168.010986328125 184.8938293457031 L 167.70166015625 183.9772644042969 L 168.5827331542969 183.5779266357422 L 269.8829345703125 137.6643676757813 L 270.9595642089844 137.1763763427734 Z" stroke="none" fill="#273642"/>
    </g>
    <g id="Path_22" data-name="Path 22" fill="#273642" stroke-miterlimit="10">
      <path d="M 222.4418792724609 202.6221160888672 L 221.7359771728516 202.2761535644531 L 189.6368255615234 186.5443572998047 L 188.7387390136719 186.1042022705078 L 188.7387390136719 185.1040496826172 L 188.7387390136719 131.6158447265625 L 188.7387390136719 130.0118560791016 L 190.3427276611328 130.0118560791016 L 254.5410766601563 130.0118560791016 L 256.1450500488281 130.0118560791016 L 256.1450500488281 131.6158447265625 L 256.14501953125 185.1040496826172 L 256.14501953125 186.1042022705078 L 255.2469329833984 186.5443572998047 L 223.1477813720703 202.2761535644531 L 222.4418792724609 202.6221160888672 Z" stroke="none"/>
      <path d="M 190.3427276611328 131.6158447265625 L 190.3427276611328 185.1040496826172 L 222.4418792724609 200.8358459472656 L 254.5410308837891 185.1040496826172 L 254.5410766601563 131.6158447265625 L 190.3427276611328 131.6158447265625 M 187.1347351074219 128.4078674316406 L 190.3427276611328 128.4078674316406 L 254.5410766601563 128.4078674316406 L 257.7490539550781 128.4078674316406 L 257.7490539550781 131.6158447265625 L 257.7490234375 185.1040496826172 L 257.7490234375 187.1043548583984 L 255.9528350830078 187.9846649169922 L 223.8536834716797 203.7164611816406 L 222.4418792724609 204.4084014892578 L 221.0300750732422 203.7164611816406 L 188.9309234619141 187.9846649169922 L 187.1347351074219 187.1043548583984 L 187.1347351074219 185.1040496826172 L 187.1347351074219 131.6158447265625 L 187.1347351074219 128.4078674316406 Z" stroke="none" fill="#273642"/>
    </g>
    <g id="Path_23" data-name="Path 23" fill="#273642" stroke-miterlimit="10">
      <path d="M 222.4418792724609 202.0267028808594 L 221.9712677001953 201.7960510253906 L 189.8721313476563 186.0642547607422 L 189.2733917236328 185.7708129882813 L 189.2733917236328 185.1040496826172 L 189.2733917236328 131.6158447265625 L 189.2733917236328 130.5465087890625 L 190.3427276611328 130.5465087890625 L 254.5410766601563 130.5465087890625 L 255.6103973388672 130.5465087890625 L 255.6103973388672 131.6158447265625 L 255.6103668212891 185.1040496826172 L 255.6103668212891 185.7708129882813 L 255.0116271972656 186.0642547607422 L 222.9124755859375 201.7960510253906 L 222.4418792724609 202.0267028808594 Z" stroke="none"/>
      <path d="M 190.3427276611328 131.6158447265625 L 190.3427276611328 185.1040496826172 L 222.4418792724609 200.8358459472656 L 254.541015625 185.1040496826172 L 254.5410766601563 131.6158447265625 L 190.3427276611328 131.6158447265625 M 188.2040710449219 129.4771881103516 L 190.3427276611328 129.4771881103516 L 254.5410766601563 129.4771881103516 L 256.6797485351563 129.4771881103516 L 256.6797485351563 131.6158447265625 L 256.6796875 185.1040496826172 L 256.6796875 186.4375915527344 L 255.4822235107422 187.0244598388672 L 223.3830871582031 202.7562561035156 L 222.4418792724609 203.2175445556641 L 221.5006866455078 202.7562561035156 L 189.4015197753906 187.0244598388672 L 188.2040710449219 186.4375915527344 L 188.2040710449219 185.1040496826172 L 188.2040710449219 131.6158447265625 L 188.2040710449219 129.4771881103516 Z" stroke="none" fill="#fff"/>
    </g>
    <path id="Path_24" data-name="Path 24" d="M186.081,187.64,258.8,154.776v-19.9l-72.721,32.864Z" fill="#fff" stroke="#273642" stroke-miterlimit="10" stroke-width="1.069"/>
  </g>
</svg>
