<svg xmlns="http://www.w3.org/2000/svg" width="75.998" height="88.006" viewBox="0 0 75.998 88.006">
  <g id="Group_11" data-name="Group 11" transform="translate(-192.282 -146.594)">
    <g id="Path_14" data-name="Path 14" fill="#273642" stroke-miterlimit="10">
      <path d="M 230.2805023193359 232.7218933105469 C 226.7041473388672 232.7218933105469 223.1507263183594 232.2739410400391 219.7189331054688 231.3904876708984 C 216.3871917724609 230.5327911376953 213.1628265380859 229.2633819580078 210.1354370117188 227.6175231933594 C 204.1874389648438 224.3838653564453 199.0416107177734 219.7044830322266 195.2542724609375 214.0852508544922 L 194.5467071533203 213.0354614257813 L 195.2542724609375 211.9856719970703 C 199.5217437744141 205.6542205810547 201.7773895263672 198.2582550048828 201.7773895263672 190.5973358154297 C 201.7773895263672 182.93603515625 199.5217437744141 175.5398712158203 195.2542724609375 169.2083892822266 L 194.5467071533203 168.1585998535156 L 195.2542724609375 167.1088104248047 C 199.0416259765625 161.4895782470703 204.1874389648438 156.8101959228516 210.1354370117188 153.5765380859375 C 213.1628265380859 151.9306793212891 216.3871917724609 150.6612701416016 219.7189331054688 149.8035736083984 C 223.1507263183594 148.9201202392578 226.7041473388672 148.47216796875 230.2805023193359 148.47216796875 C 233.8568572998047 148.47216796875 237.4102783203125 148.9201202392578 240.8420715332031 149.8035736083984 C 244.1738128662109 150.6612701416016 247.3981781005859 151.9306793212891 250.4255676269531 153.5765380859375 C 256.3735656738281 156.8101959228516 261.5193786621094 161.4895782470703 265.3067321777344 167.1088104248047 L 266.0142822265625 168.1585998535156 L 265.3067321777344 169.2083892822266 C 261.0392761230469 175.5398712158203 258.7835998535156 182.9360504150391 258.7835998535156 190.5973358154297 C 258.7835998535156 198.2582397460938 261.0392761230469 205.6542053222656 265.3067321777344 211.9856719970703 L 266.0142822265625 213.0354614257813 L 265.3067321777344 214.0852508544922 C 261.5194091796875 219.7044830322266 256.3735656738281 224.3838653564453 250.4255676269531 227.6175231933594 C 247.3981781005859 229.2633819580078 244.1738128662109 230.5327911376953 240.8420715332031 231.3904876708984 C 237.4102783203125 232.2739410400391 233.8568572998047 232.7218933105469 230.2805023193359 232.7218933105469 Z" stroke="none"/>
      <path d="M 230.2805023193359 150.3504638671875 C 216.3383483886719 150.3504638671875 204.0510864257813 157.4177856445313 196.8118286132813 168.1585845947266 C 201.1329650878906 174.5696716308594 203.6557006835938 182.2888488769531 203.6557006835938 190.5973358154297 C 203.6557006835938 198.9052124023438 201.1329650878906 206.6244049072266 196.8118286132813 213.0354461669922 C 204.0510864257813 223.7762451171875 216.3383483886719 230.8435974121094 230.2805023193359 230.8435974121094 C 244.22265625 230.8435974121094 256.5099182128906 223.7762451171875 263.7491760253906 213.0354461669922 C 259.4280395507813 206.6244049072266 256.9053039550781 198.9052124023438 256.9053039550781 190.5973358154297 C 256.9053039550781 182.2888488769531 259.4280395507813 174.5696716308594 263.7491760253906 168.1585845947266 C 256.5099182128906 157.4177856445313 244.22265625 150.3504638671875 230.2805023193359 150.3504638671875 M 230.2805023193359 146.5938568115234 C 234.0147094726563 146.5938568115234 237.7256774902344 147.0617523193359 241.3103485107422 147.9845733642578 C 244.7913055419922 148.8806762695313 248.1599426269531 150.2068634033203 251.3227233886719 151.9263153076172 C 257.5347900390625 155.3035278320313 262.9089660644531 160.1905517578125 266.8643188476563 166.0590057373047 L 268.2794189453125 168.1586151123047 L 266.8642883300781 170.2581939697266 C 262.806640625 176.2783355712891 260.6619262695313 183.3114929199219 260.6619262695313 190.5973358154297 C 260.6619262695313 197.8828125 262.806640625 204.9157562255859 266.8642883300781 210.9358367919922 L 268.2794189453125 213.0354309082031 L 266.8643188476563 215.1350250244141 C 262.9089660644531 221.0034942626953 257.5347900390625 225.8905181884766 251.3227233886719 229.2677307128906 C 248.1599426269531 230.9871978759766 244.7913055419922 232.3133850097656 241.3103485107422 233.2094879150391 C 237.7256774902344 234.1323089599609 234.0147094726563 234.6002044677734 230.2805023193359 234.6002044677734 C 226.5462951660156 234.6002044677734 222.8353271484375 234.1323089599609 219.2506561279297 233.2094879150391 C 215.7696990966797 232.3133850097656 212.4010620117188 230.9871978759766 209.23828125 229.2677307128906 C 203.0262145996094 225.8905181884766 197.6520385742188 221.0034942626953 193.6967163085938 215.1350250244141 L 192.2815856933594 213.0354309082031 L 193.6967468261719 210.9358367919922 C 197.7543334960938 204.915771484375 199.8990783691406 197.8828277587891 199.8990783691406 190.5973358154297 C 199.8990783691406 183.3114471435547 197.7543334960938 176.2783050537109 193.6967163085938 170.2581939697266 L 192.2815856933594 168.1586151123047 L 193.6967163085938 166.0590057373047 C 197.6520385742188 160.1905517578125 203.0262145996094 155.3035278320313 209.23828125 151.9263153076172 C 212.4010620117188 150.2068634033203 215.7696990966797 148.8806762695313 219.2506561279297 147.9845733642578 C 222.8353271484375 147.0617523193359 226.5462951660156 146.5938568115234 230.2805023193359 146.5938568115234 Z" stroke="none" fill="#273642"/>
    </g>
    <g id="Path_15" data-name="Path 15" fill="#273642" stroke-miterlimit="10">
      <path d="M 230.2805023193359 232.0957794189453 C 226.7567749023438 232.0957794189453 223.255859375 231.6544952392578 219.8750152587891 230.7841644287109 C 216.593017578125 229.9392700195313 213.4167633056641 228.6887817382813 210.4344787597656 227.0674591064453 C 204.5745086669922 223.8816528320313 199.5048065185547 219.2714691162109 195.7734527587891 213.7353210449219 L 195.3017425537109 213.0354461669922 L 195.7734527587891 212.3356018066406 C 200.1108703613281 205.9003753662109 202.4035034179688 198.3834075927734 202.4035034179688 190.5973358154297 C 202.4035034179688 182.8108825683594 200.1108703613281 175.293701171875 195.7734527587891 168.8584594726563 L 195.3017425537109 168.1586151123047 L 195.7734527587891 167.458740234375 C 199.5048065185547 161.9225921630859 204.5745086669922 157.3124084472656 210.4344787597656 154.1266021728516 C 213.4167633056641 152.5052795410156 216.593017578125 151.2547912597656 219.8750152587891 150.4098968505859 C 223.255859375 149.5395660400391 226.7567749023438 149.0982818603516 230.2805023193359 149.0982818603516 C 233.8042297363281 149.0982818603516 237.3051452636719 149.5395660400391 240.6859893798828 150.4098968505859 C 243.9679870605469 151.2547912597656 247.1442413330078 152.5052795410156 250.1265258789063 154.1266021728516 C 255.9864959716797 157.3124084472656 261.0562133789063 161.9225921630859 264.7875366210938 167.458740234375 L 265.2592468261719 168.1586151123047 L 264.7875366210938 168.8584594726563 C 260.4501342773438 175.2937164306641 258.1575012207031 182.8108978271484 258.1575012207031 190.5973358154297 C 258.1575012207031 198.3833923339844 260.4501342773438 205.9003601074219 264.7875366210938 212.3356018066406 L 265.2592468261719 213.0354461669922 L 264.7875366210938 213.7353210449219 C 261.0562133789063 219.2714691162109 255.9864959716797 223.8816528320313 250.1265258789063 227.0674591064453 C 247.1442413330078 228.6887817382813 243.9679870605469 229.9392700195313 240.6859893798828 230.7841644287109 C 237.3051452636719 231.6544952392578 233.8042297363281 232.0957794189453 230.2805023193359 232.0957794189453 Z" stroke="none"/>
      <path d="M 230.2805023193359 150.3504791259766 C 216.3383483886719 150.3504791259766 204.0510864257813 157.4178009033203 196.8118286132813 168.1585998535156 C 201.1329650878906 174.5696563720703 203.6557006835938 182.2888488769531 203.6557006835938 190.5973358154297 C 203.6557006835938 198.9052124023438 201.1329650878906 206.6244049072266 196.8118286132813 213.0354614257813 C 204.0510864257813 223.7762603759766 216.3383483886719 230.8435821533203 230.2805023193359 230.8435821533203 C 244.22265625 230.8435821533203 256.5099182128906 223.7762603759766 263.7491760253906 213.0354614257813 C 259.4280700683594 206.6244049072266 256.9053039550781 198.9052124023438 256.9053039550781 190.5973358154297 C 256.9053039550781 182.2888488769531 259.4280700683594 174.5696563720703 263.7491760253906 168.1585998535156 C 256.5099182128906 157.4178009033203 244.22265625 150.3504791259766 230.2805023193359 150.3504791259766 M 230.2805023193359 147.8460693359375 C 233.9094696044922 147.8460693359375 237.5154113769531 148.3006591796875 240.9981689453125 149.1972351074219 C 244.379638671875 150.0677337646484 247.6520843505859 151.3560791015625 250.7246246337891 153.0264587402344 C 256.7606201171875 156.3079833984375 261.9826049804688 161.0565643310547 265.825927734375 166.7588806152344 L 266.7693176269531 168.1586151123047 L 265.8258972167969 169.5583343505859 C 261.62841796875 175.7860260009766 259.4097290039063 183.0612030029297 259.4097290039063 190.5973358154297 C 259.4097290039063 198.1330871582031 261.62841796875 205.4080352783203 265.8258972167969 211.6357269287109 L 266.7693176269531 213.0354461669922 L 265.825927734375 214.4351806640625 C 261.9826049804688 220.1374969482422 256.7606201171875 224.8860778808594 250.7246246337891 228.1676025390625 C 247.6520843505859 229.8379821777344 244.379638671875 231.1263275146484 240.9981689453125 231.996826171875 C 237.5154113769531 232.8934020996094 233.9094696044922 233.3479919433594 230.2805023193359 233.3479919433594 C 226.6515350341797 233.3479919433594 223.0455932617188 232.8934020996094 219.5628356933594 231.996826171875 C 216.1813659667969 231.1263275146484 212.9089202880859 229.8379821777344 209.8363800048828 228.1676025390625 C 203.8003540039063 224.8860778808594 198.5784301757813 220.1374969482422 194.7350769042969 214.4351806640625 L 193.7916564941406 213.0354461669922 L 194.735107421875 211.6357269287109 C 198.9326171875 205.4080810546875 201.1512756347656 198.1331176757813 201.1512756347656 190.5973358154297 C 201.1512756347656 183.0611419677734 198.9326171875 175.7859802246094 194.735107421875 169.5583343505859 L 193.7916564941406 168.1586151123047 L 194.7350769042969 166.7588806152344 C 198.5784301757813 161.0565643310547 203.8003540039063 156.3079833984375 209.8363800048828 153.0264587402344 C 212.9089202880859 151.3560791015625 216.1813659667969 150.0677337646484 219.5628356933594 149.1972351074219 C 223.0455932617188 148.3006591796875 226.6515350341797 147.8460693359375 230.2805023193359 147.8460693359375 Z" stroke="none" fill="#fff"/>
    </g>
  </g>
</svg>
