<svg xmlns="http://www.w3.org/2000/svg" width="147.932" height="61.971" viewBox="0 0 147.932 61.971">
  <g id="Group_24" data-name="Group 24" transform="translate(-53.555 -24.54)">
    <g id="Path_3" data-name="Path 3" fill="#273642" stroke-miterlimit="10">
      <path d="M 127.5208892822266 84.46444702148438 L 126.79150390625 84.15889739990234 L 62.59679794311523 57.26651763916016 L 58.44061660766602 55.52540969848633 L 62.59679794311523 53.7843017578125 L 126.79150390625 26.89191818237305 L 127.5208892822266 26.58637428283691 L 128.2502746582031 26.89191818237305 L 192.4449920654297 53.7843017578125 L 196.6011810302734 55.52540969848633 L 192.4449920654297 57.26651763916016 L 128.2502746582031 84.15889739990234 L 127.5208892822266 84.46444702148438 Z" stroke="none"/>
      <path d="M 127.5208892822266 82.41778564453125 L 191.7156066894531 55.52540969848633 L 127.5208892822266 28.63303375244141 L 63.32616424560547 55.52540969848633 L 127.5208892822266 82.41778564453125 M 127.5208892822266 86.51108551025391 L 126.062141418457 85.89998626708984 L 61.86741256713867 59.00761032104492 L 53.55503845214844 55.52540969848633 L 61.86741256713867 52.04320907592773 L 126.062141418457 25.15083503723145 L 127.5208892822266 24.53973388671875 L 128.9796447753906 25.15083503723145 L 193.1743621826172 52.04320907592773 L 201.4867401123047 55.52540969848633 L 193.1743621826172 59.00761032104492 L 128.9796447753906 85.89998626708984 L 127.5208892822266 86.51108551025391 Z" stroke="none" fill="#273642"/>
    </g>
    <g id="Path_4" data-name="Path 4" fill="#273642" stroke-miterlimit="10">
      <path d="M 127.5208892822266 83.7822265625 L 127.0346374511719 83.57852172851563 L 62.83992385864258 56.68613815307617 L 60.06914520263672 55.52540969848633 L 62.83992385864258 54.36468124389648 L 127.0346374511719 27.4723014831543 L 127.5208892822266 27.26859092712402 L 128.0071411132813 27.4723014831543 L 192.2018737792969 54.36468124389648 L 194.97265625 55.52540969848633 L 192.2018737792969 56.68613815307617 L 128.0071411132813 83.57852172851563 L 127.5208892822266 83.7822265625 Z" stroke="none"/>
      <path d="M 127.5208892822266 82.41780090332031 L 191.7156066894531 55.52540969848633 L 127.5208892822266 28.63301849365234 L 63.326171875 55.52540969848633 L 127.5208892822266 82.41780090332031 M 127.5208892822266 85.14666748046875 L 126.5483856201172 84.73928070068359 L 62.35367202758789 57.84688949584961 L 56.81208419799805 55.52540969848633 L 62.35367202758789 53.20392990112305 L 126.5483856201172 26.3115406036377 L 127.5208892822266 25.90414810180664 L 128.4933929443359 26.3115406036377 L 192.6881103515625 53.20392990112305 L 198.2296905517578 55.52540969848633 L 192.6881103515625 57.84688949584961 L 128.4933929443359 84.73928070068359 L 127.5208892822266 85.14666748046875 Z" stroke="none" fill="#fff"/>
    </g>
    <path id="Path_5" data-name="Path 5" d="M96.545,41.61V69.441l30.976,12.977L158.5,69.441V41.61L127.521,28.633Z" fill="#fff"/>
    <g id="Path_6" data-name="Path 6" fill="none" stroke-miterlimit="10">
      <path d="M127.521,82.418,63.326,55.525l64.195-26.892,64.195,26.892Z" stroke="none"/>
      <path d="M 127.5208892822266 80.37113189697266 L 186.8300628662109 55.52540969848633 L 127.5208892822266 30.6796875 L 68.21173858642578 55.52540969848633 L 127.5208892822266 80.37113189697266 M 127.5208892822266 82.41778564453125 L 63.32617950439453 55.52540969848633 L 127.5208892822266 28.63303375244141 L 191.7156219482422 55.52540969848633 L 127.5208892822266 82.41778564453125 Z" stroke="none" fill="#273642"/>
    </g>
  </g>
</svg>
