<svg xmlns="http://www.w3.org/2000/svg" width="39" height="39" viewBox="0 0 39 39">
  <path id="search-icon" d="M330.25,157.5a.7.7,0,0,0-.492-.234.5.5,0,0,0-.422.234l-1.289-1.312a7.736,7.736,0,0,0,1.688-4.9,7.9,7.9,0,0,0-1.066-4.008,7.815,7.815,0,0,0-2.918-2.918,8.064,8.064,0,0,0-8.016,0,7.809,7.809,0,0,0-2.918,2.918,8.065,8.065,0,0,0,0,8.016,7.8,7.8,0,0,0,2.918,2.918,7.891,7.891,0,0,0,4.008,1.066,7.737,7.737,0,0,0,4.9-1.687l1.313,1.289a.844.844,0,0,0-.164.492.57.57,0,0,0,.164.422l5.3,5.3a.662.662,0,0,0,.48.211.462.462,0,0,0,.41-.211l1.406-1.406a.576.576,0,0,0,0-.891Zm-8.508-12.211a6,6,0,1,1-4.242,1.758A5.781,5.781,0,0,1,321.742,145.291Z" transform="translate(-313.75 -143.299)" fill="#0777ba"/>
</svg>
