<svg xmlns="http://www.w3.org/2000/svg" width="34.273" height="36.343" viewBox="0 0 34.273 36.343">
  <path id="Shape_5" data-name="Shape 5" d="M54.506,869.029l-1.086-.515a14.481,14.481,0,0,0-3.6-15.142,14.164,14.164,0,0,0-10.457-4.4,14.925,14.925,0,0,0-14.857,14.857,14.455,14.455,0,0,0,3.771,9.943,14.3,14.3,0,0,0,9.372,4.857v1.143a16.021,16.021,0,0,1,1.714-31.943,15.262,15.262,0,0,1,11.257,4.743,15.26,15.26,0,0,1,4.743,11.257A16.006,16.006,0,0,1,54.506,869.029ZM33.649,850.114l-4,4.057a13.159,13.159,0,0,0-4,9.657,13.374,13.374,0,0,0,3.429,9.143,13.2,13.2,0,0,0,8.571,4.514v-7.029H35.535c-.267,0-.4-.151-.4-.457v-.8a.409.409,0,0,1,.229-.4q.514-.171,1.029-.4a4.318,4.318,0,0,1,.743-.172v-9.143h-.057c-.42.038-.838.057-1.257.057h-.571a.366.366,0,0,1-.4-.343l-.114-.743a.448.448,0,0,1,.343-.457,17.2,17.2,0,0,0,2.171-.686,11.532,11.532,0,0,0,2.171-1.086.511.511,0,0,1,.229-.057h1.257a.354.354,0,0,1,.4.4v6.457L52.392,868a12.771,12.771,0,0,0,.686-4.171,13.068,13.068,0,0,0-4.057-9.657,13.07,13.07,0,0,0-9.657-4.057Zm6.8,33.486V865.314l16.343,7.943a.462.462,0,0,0,.743-.229.521.521,0,0,0-.229-.8l-17.2-8.286a.427.427,0,0,0-.514,0,.516.516,0,0,0-.286.457v19.2a.572.572,0,0,0,1.143,0Zm1.143-2.743a14.522,14.522,0,0,0,7.486-2.286,14.321,14.321,0,0,0,4.971-5.372l-1.028-.514a12.448,12.448,0,0,1-11.429,7.028Z" transform="translate(-23.363 -847.828)" fill="#0777ba"/>
</svg>
